<?xml version="1.0" encoding="UTF-8"?>
<svg id="Layer_1" data-name="Layer 1" xmlns="http://www.w3.org/2000/svg" viewBox="0 0 2080.33 1050.54">
  <defs>
    <style>
      .cls-1 {
        fill: #1d1d1d;
      }

      .cls-2 {
        fill: #030403;
      }

      .cls-3 {
        fill: #fdfcf3;
      }

      .cls-4 {
        fill: #030706;
      }

      .cls-5 {
        fill: #2cda82;
      }

      .cls-6 {
        fill: #666;
      }

      .cls-7 {
        fill: #fefefe;
      }

      .cls-8 {
        fill: #383838;
      }

      .cls-9 {
        fill: #f7b142;
      }
    </style>
  </defs>
  <g>
    <path class="cls-4" d="M1475.45,716.7c78.74-1.24,274.99,3.94,343.88,25.51,35.4,11.08,15.1,54.31-12.49,57.41-11.98,1.35-94.22-13.23-115.37-15.42-170.68-17.63-339.66-7.24-506.95,18.61-26.79,4.14-112.25,23.3-132.3,20.52-30.15-4.17-41.45-38.53-16.99-51.7,13.87-7.47,59.07-15.48,77.68-19.14,114.76-22.58,243.09-33.9,362.54-35.78ZM1693.71,739.24c-160.61-12.91-332.9-9.11-491.4,12.4-23.57,3.2-143.44,22.46-155.89,30.76-11.47,7.65-3.21,27.43,16.95,27.06,15.75-.29,57.49-11.04,76.27-14.03,188.61-30.08,374.83-45.41,568.13-23.49,15.18,1.72,87.36,14.55,93.93,13.97,12.62-1.11,25.8-25.26,12.67-31.1s-102.36-14.11-120.66-15.58Z"/>
    <path class="cls-5" d="M1058.26,473.97c4.2,3.36,96.8-51.35,107.46-48.99,5.48,1.21,4.12,11.44,3.77,14.6-2.17,19.71-18.67,39.82-20.63,58.94,42.39-37.57,73.75-81.01,118.31-117.5,7.67-6.28,39.66-37.33,45.04-16.14-15.55,20.91-18.52,103.18-33.72,117.01-5.2,4.73-12.03,4.72-16.43-.41-6.02-2.97-8.99-30.05-11.41-30.02-3.73.05-44.24,37.27-43.93,41.47.34,4.58,82.38,52.39,95.26,57.34,14.99-32.88,25.55-66.83,41.15-99.57,3.44-7.22,13.74-32.82,21.87-36.08,6.5-2.6,19.78-3.74,23.86,2.07,4.51,6.42,8.3,43.89,9.61,53.73.67,5.04,1.43,34.84,3.02,36.29.38.35,1.78-.61,2.22-1.01,6.39-5.78,32.66-81.66,38.96-95.91,8.28-18.73,44.59-100.69,61.77-110.38,1.54-.87,3.44-1.4,5.46-1.35,3.87,91.45-3.75,184.79,26.74,274.11,16.56-34.77,30.54-70.18,47.52-104.86,5.74-11.72,27.38-41.97,29.41-50.36,1.41-5.81-7.5-12.3-3.36-17.62,4.44-5.7,109.62-16.34,118.87-22.49,4.88-3.24,2.83-9.12,3.68-11.59,5.79-16.76,10.91-35.75,21.61-52.82,3.42-5.46,30.37-38.96,35.63-39.92,3.05-.56,3.22,4.36,3.49,5.75,2.81,14.62-20.39,84.02-16.13,87.31,3.17,2.44,80.38-20.87,88.78-23.21,12.24-3.41,46.65-17.51,57.75-17.66,7.78-.11,47.25,20.63,48.09,25.1,1.36,7.21-184.67,37.4-200.29,46.15-10.91,63.67-16.79,127.95-19.65,192.06-1.02,22.9,5.37,62.61-.06,82.81-1.94,7.22-33.34,34.41-45.91,30.74-13.05-3.81-56.71-114.36-63.17-130.36-10.45,6.85-92.23,40.05-94.1,44.71-3.41,8.51,30.75,67.91,26.27,72.73-3.56,3.83-46.19-.53-52.43-5.03-8.24-5.93-14.89-42.29-17.19-43.92-4.21-3-96.94,48.23-103.98,42.96-12.76-9.55,83.38-65.15,96.63-70.3-7.72-31.27-16.14-62.59-22.24-94.05-2.62-13.52-5.57-29.88-7.6-44.78-.9-6.61,1.29-13.14-2.9-19.97-10.16,29.12-21.74,58.25-35.29,86.69-3.45,7.24-18.02,41.66-24.81,44.3-2.83,1.1-3.57,1.31-6.74.45-9.15-2.51-22.71-50.78-27.23-60.05-1.49-3.06-3.97-10.84-8.45-12.07-12.05,28.45-23.79,56.98-33.49,85.89-11.38,33.92-3.66,64.55-51.62,85.15-3.45,1.48-13.62,6.89-15.7,3.17-3.59-6.4,30.54-72.12,19.83-86.25-64.91,38.43-125.56,88.2-193.23,123.7-8.28,4.34-33.84,21.05-33.01,5.99.63-11.53,22.33-52.96,29.35-65.79,5.54-10.11,41.66-70.2,60.02-67.07,14.01,2.39-8.86,58.18-14.7,65.52,12.96-11.78,130.37-82.3,131.39-88.59.85-5.24-111.21-53.27-120.96-64.8-20.59,42.53-54.01,76.79-92.92,111.96-6.02,5.44-44.97,35.67-45.74,38.08-2.27,7.19,27.48,47.95,25.01,63.23-1.02,6.32-30.04,25.73-36.15,23.87-8.31-2.54-16.17-32.51-21.49-38.43-6.16-6.85-91.77-30.34-108.42-34.8-19.18-5.14-88.7-18.36-99.49-23.56-2.53-1.22-3.52-.94-3.19-3.57,1.75-14.28,114.2-83.43,135.8-95.84,6.44-3.7,35.49-16.17,37.55-19.2,2.12-3.11-5.08-56.82-7.16-63.17-.52-1.58,1-1.78-2.93-1.53-30.2,38.72-46.62,93.36-103.25,117.64-3.72,1.59-18.5,10.07-18.6,4.6-.1-5.36,18.29-34.56,22.48-41.82,23.29-40.43,50.75-80.81,81.28-118.95,5.59-6.98,35.35-44.84,41.01-47.45,9.88-4.55,11.29,14.64,12.55,20.12,8.18,35.51,11.11,72.02,16.53,107.78,5.1-.87,33.67-4.73,35.36-6.33,2.54-2.4,6.56-35.18,7.76-41.04,7.85-38.54,27.16-99.47,28.14-138.29.25-9.86-8.44-17.81-7.1-24.25.59-2.85,47.81-44.23,51.69-45.31,10.4-2.88,7.76,19.95,7.42,24.55l-38.58,195.89ZM1729.81,409.54c-2.81-1.87-74.54,9.07-75.86,12.81,4.64,12.05,15.11,102.28,20.89,105.84,1.89,1.16,42.76-15.05,25.06,12.65-3.03,4.75-14.06,9.43-15.38,11.92-1.86,3.51,11.32,48.07,13.84,54.85,1.18,3.18,13.46,31.06,15.85,31.02-.58-36.23-3.9-72.65-2.29-108.96,1.13-25.45,4.93-55.76,8.95-79.69.93-5.55,11.08-39.03,8.94-40.45ZM1576.79,568.08c8.09-5.22,56.55-20.98,59.12-26.29,3.92-8.13-15.51-52.86-14.58-64.74l-44.53,91.03ZM1113.21,485.24l-66.97,33.41-8.77,63.74,75.75-97.15ZM1004.75,532.27c-2.38-1.79-21.18,8.33-24.98,9.8l13.12,84.29c3.27-10.84,16.5-90.62,11.86-94.1ZM937.89,558.88c-13.98,6.33-107.29,67.11-105.48,72.08,1.64,4.51,113.25,24.9,126.28,33.25l-20.8-105.34Z"/>
    <path class="cls-5" d="M2051.35,476.61c3.6,4.66,11.09,8.8-.28,13.47l-218.75,60.63,131.48,101.26c7.56-15.67,13.63-31.79,21.93-47.31,6.84-12.8,32.78-59.87,47.21-65.69,11.82-4.77,29.03,5.23,29.75,13.27.59,6.59-35.83,66.44-41.71,79.75-7.03,15.89-13.3,32.21-18.89,48.36-2.25,6.49-5.4,36.68-15.64,35.9-4.86-.37-35.82-33.43-42.03-38.71-30.9-26.27-72.91-56.37-109.11-79.3-12.64-8-62.22-32.74-67.68-39.33-13.01-15.7-.5-28.1,8.95-42,17.39-25.55,43.54-57.61,64.65-82.05,25.02-28.96,48.66-65.04,106.35-63.2,18.23.58,19.53,17.53,26.6,26.65,22.05,28.49,57.4,52.67,77.19,78.29ZM1923.94,413.73l-107.24,113.41,179.06-50.63-71.81-62.77Z"/>
    <path class="cls-7" d="M1168.19,602.34c-3.08-13.03-18.91-20.24-37.49-15.58-26.01,6.52-59.41,65.58-68.65,83.66-2.6,5.08-14.96,39.41-17.93,39.82-3.48.49-14.82-43.53-21.22-46.71,48.68-40.25,95.74-81.31,125.21-130.18,8.8,6.42,83.83,37.48,85.45,40.89,1.43,3.02-58.97,38.91-65.37,44.98-.86-5.2,1.17-11.91,0-16.88Z"/>
    <path class="cls-7" d="M894.82,534.31c-1.24-.86,14.07-19.59,16.32-21.47-1.59,3.61,3.71,10.47,2.27,13.28-.76,1.49-17.27,9.1-18.6,8.19Z"/>
    <path class="cls-7" d="M1791.1,404.68c3.74-2.68,58.65-11.43,67.93-14.08l-80.95,96.64c3.19-10.14,7.97-78.95,13.03-82.57Z"/>
    <path class="cls-5" d="M1693.71,739.24c18.3,1.47,107.38,9.67,120.66,15.58s-.04,29.98-12.67,31.1c-6.58.58-78.75-12.24-93.93-13.97-193.3-21.93-379.52-6.59-568.13,23.49-18.77,2.99-60.51,13.75-76.27,14.03-20.16.37-28.43-19.41-16.95-27.06,12.45-8.3,132.32-27.56,155.89-30.76,158.5-21.52,330.78-25.31,491.4-12.4Z"/>
    <path class="cls-4" d="M1729.81,409.54c2.13,1.42-8.01,34.9-8.94,40.45-4.02,23.93-7.81,54.24-8.95,79.69-1.61,36.31,1.71,72.73,2.29,108.96-2.39.04-14.67-27.85-15.85-31.02-2.52-6.79-15.71-51.34-13.84-54.85,1.32-2.49,12.35-7.17,15.38-11.92,17.7-27.71-23.17-11.49-25.06-12.65-5.78-3.56-16.25-93.79-20.89-105.84,1.32-3.74,73.05-14.68,75.86-12.81ZM1706.02,425.91c-1.09-.81-30.25,4.22-31.2,5.11-3.39,3.21,16.6,69.09,14.87,78.75l5.98-1.73c-4.3-10.25,14.42-79.11,10.34-82.13Z"/>
    <path class="cls-4" d="M937.89,558.88l20.8,105.34c-13.02-8.36-124.63-28.74-126.28-33.25-1.81-4.97,91.5-65.76,105.48-72.08ZM933.44,641.71l-14.11-55.2c-4.54,5.31-57.35,36.34-55.71,38.83,1.52,2.31,61.57,14.03,69.82,16.37Z"/>
    <path class="cls-4" d="M1576.79,568.08l44.53-91.03c-.93,11.89,18.51,56.61,14.58,64.74-2.56,5.31-51.02,21.07-59.12,26.29Z"/>
    <polygon class="cls-4" points="1113.21 485.24 1037.46 582.39 1046.24 518.65 1113.21 485.24"/>
    <path class="cls-4" d="M1004.75,532.27c4.64,3.48-8.59,83.25-11.86,94.1l-13.12-84.29c3.8-1.47,22.59-11.59,24.98-9.8Z"/>
    <path class="cls-4" d="M1771.4,670.87c-3.13,16.29-48.9,55.11-76.53,42.46-20.44-9.36-52.49-99.08-61.97-118.94l-3.34-1.75c-5.66,5.22-59.36,25.9-60.31,28.32-3.46,8.92,30.98,56.38,24.64,72.95-6.21,16.24-64.14,9.12-78.54,2.87-17.66-7.66-19.27-35.56-21.81-36.65-4.43-1.9-66.76,36.05-89.85,35.88-5.18-.04-12.29-1.99-16.13-4.34-24.28-14.87,25.67-47.94,41.33-58.17,6.45-4.21,45.43-24.78,46.51-27.31,5.39-12.61-20.4-65.31-17.52-82.11-12.75,15.2-22.27,66.15-46.2,73.02-35.13,10.09-38.6-23.24-48.85-37.22l-33.49,106.34c-6.2,10.57-45.69,35.58-62.62,35.74-49.03.46-5.9-52.35-5.68-68.42-44.85,27.27-85.88,57.69-131.49,84.37-12.13,7.09-50.19,30.77-63.54,31.98-23.8,2.16-27.53-11.04-29.32-11.01-2.46.03-20.98,19.99-37.12,21.49-35.71,3.31-33.11-28.22-45.04-41.65-6.62-7.46-74.74-25.48-90.58-29.7-32.31-8.6-83.68-16.23-111.33-25.64-44.46-15.13,21.73-45.73,25.97-56.17,1.61-3.95-1.9-7.29-1.06-10.84,8.42-35.57,48.08-91.29,71.41-124.81,11.76-16.9,67.07-94.41,82.96-102.45,32.89-16.64,40.65,15.34,44.36,29.85,2.95,11.54,11.21,81.89,15.12,85.24.42.36,1.61-.57,2.24-1l31.92-163.21c-.23-9.68-8.47-14.58-5.29-26.09,1.8-6.52,44.8-44.46,53.38-49.68,24.08-14.66,39.33-2.09,42.51,15.49-2.66,62.29-22.13,123.69-31.16,185.62,23.88-7.18,67.07-43.01,93.47-31.12,6.34.22,11.6,17.26,14.94,15.76,2.99-1.33,33.17-35,39.54-40.81,11.12-10.13,44.42-42.14,60.92-43.98,24.03-2.68,38.87,4.51,37.54,21.76-.79,10.31-31.61,115.94-36.15,121.37-9.77,11.68-32.32,14.11-45.36,3.54-5.32-4.31-5.68-11.68-11.87-14.82-.71,4.23-10.6,9.88-10.48,13.89.08,2.8,59.17,35.16,63.24,35.18,5.93.03,25.61-71.47,33-78.49,9.15-14.24,13.17-43.6,39.29-47.62,43.99-6.77,44.88,11.51,50.23,35.1,12.04-34.25,26.06-68.74,44.97-101.5,6.2-10.74,26.12-46.86,41.61-50.11,17.38-3.64,26.95,3.27,29.12,14.18,7.22,36.25-.81,89.6,1.64,128.77,1.82,29.15,6.26,58.4,10.47,87.41,10.65-21.22,20.38-42.71,31.16-63.93,3.35-6.59,19.99-30.19,20.57-34.02,1.26-8.22-12.94-17.92,4.77-28.32,14.93-8.77,110.71-18.15,115.6-22.19,1.8-1.49,10.22-31.99,12.86-37.68,6.48-13.99,33.78-60.03,51.33-66.95,57.82-22.78,26.51,70.32,23.71,84.33l118.57-35.5c15.05-5.97,68.32,26.6,71.44,33.05,7.63,15.75-11.63,18.63-13.01,22.51-1.99,5.58,27.8,43.07,33.93,50.03,14.81,16.83,52.07,43.81,61.25,58.07,10.82,16.81,1.9,23.53-18.61,30.57-57.81,19.84-129.47,31.43-188.2,51.46,10.16,3.07,86.96,65.64,92.09,62.91,3.18-1.69,22.99-44.17,27.99-51.83,7.67-11.74,21.7-36.4,39.8-41.13,26.13-6.82,51.46,6.52,53.87,25.05,2,15.36-34.69,70.75-43.3,90.65-7.63,17.65-19.65,70.23-29.04,81.27-24.87,29.23-64.32-22.69-79.08-34.93-47.23-39.18-98.99-76.65-157.43-107.94-3.97,28.45,5.31,63.92,0,91.54ZM1058.26,473.97l38.58-195.89c.34-4.6,2.98-27.42-7.42-24.55-3.88,1.07-51.1,42.45-51.69,45.31-1.34,6.44,7.35,14.39,7.1,24.25-.98,38.82-20.29,99.75-28.14,138.29-1.19,5.86-5.22,38.63-7.76,41.04-1.69,1.61-30.26,5.46-35.36,6.33-5.42-35.76-8.35-72.28-16.53-107.78-1.26-5.48-2.67-24.68-12.55-20.12-5.66,2.61-35.42,40.47-41.01,47.45-30.52,38.14-57.99,78.52-81.28,118.95-4.18,7.26-22.57,36.45-22.48,41.82.1,5.48,14.88-3,18.6-4.6,56.64-24.29,73.05-78.92,103.25-117.64,3.93-.25,2.41-.05,2.93,1.53,2.08,6.35,9.28,60.06,7.16,63.17-2.06,3.03-31.11,15.5-37.55,19.2-21.6,12.4-134.05,81.55-135.8,95.84-.32,2.63.67,2.35,3.19,3.57,10.79,5.2,80.31,18.42,99.49,23.56,16.65,4.46,102.26,27.95,108.42,34.8,5.32,5.92,13.18,35.89,21.49,38.43,6.11,1.87,35.13-17.55,36.15-23.87,2.46-15.29-27.28-56.04-25.01-63.23.76-2.41,39.71-32.64,45.74-38.08,38.92-35.17,72.34-69.43,92.92-111.96,9.75,11.53,121.82,59.56,120.96,64.8-1.02,6.29-118.43,76.82-131.39,88.59,5.84-7.34,28.72-63.13,14.7-65.52-18.36-3.13-54.48,56.96-60.02,67.07-7.03,12.83-28.72,54.26-29.35,65.79-.83,15.06,24.73-1.65,33.01-5.99,67.68-35.5,128.32-85.27,193.23-123.7,10.71,14.13-23.42,79.84-19.83,86.25,2.08,3.71,12.25-1.69,15.7-3.17,47.96-20.6,40.24-51.24,51.62-85.15,9.7-28.91,21.44-57.44,33.49-85.89,4.48,1.23,6.96,9.01,8.45,12.07,4.52,9.27,18.09,57.54,27.23,60.05,3.16.87,3.91.65,6.74-.45,6.79-2.64,21.36-37.06,24.81-44.3,13.55-28.44,25.12-57.57,35.29-86.69,4.19,6.83,2,13.36,2.9,19.97,2.02,14.9,4.98,31.27,7.6,44.78,6.09,31.46,14.51,62.78,22.24,94.05-13.25,5.15-109.39,60.75-96.63,70.3,7.04,5.27,99.77-45.96,103.98-42.96,2.3,1.64,8.95,37.99,17.19,43.92,6.24,4.49,48.87,8.86,52.43,5.03,4.48-4.83-29.68-64.22-26.27-72.73,1.86-4.66,83.65-37.85,94.1-44.71,6.47,16,50.12,126.55,63.17,130.36,12.57,3.67,43.96-23.52,45.91-30.74,5.43-20.2-.96-59.9.06-82.81,2.86-64.11,8.74-128.39,19.65-192.06,15.63-8.75,201.65-38.94,200.29-46.15-.84-4.47-40.31-25.2-48.09-25.1-11.09.15-45.51,14.25-57.75,17.66-8.4,2.34-85.62,25.65-88.78,23.21-4.27-3.28,18.93-72.69,16.13-87.31-.27-1.39-.44-6.31-3.49-5.75-5.26.96-32.2,34.46-35.63,39.92-10.7,17.07-15.82,36.06-21.61,52.82-.85,2.47,1.19,8.36-3.68,11.59-9.26,6.14-114.43,16.78-118.87,22.49-4.15,5.33,4.76,11.81,3.36,17.62-2.03,8.39-23.67,38.64-29.41,50.36-16.98,34.68-30.96,70.09-47.52,104.86-30.49-89.32-22.88-182.66-26.74-274.11-2.02-.05-3.92.48-5.46,1.35-17.18,9.68-53.49,91.65-61.77,110.38-6.3,14.25-32.57,90.13-38.96,95.91-.44.4-1.84,1.36-2.22,1.01-1.58-1.45-2.35-31.25-3.02-36.29-1.3-9.84-5.1-47.31-9.61-53.73-4.07-5.81-17.36-4.67-23.86-2.07-8.13,3.26-18.43,28.86-21.87,36.08-15.59,32.74-26.16,66.69-41.15,99.57-12.88-4.95-94.92-52.75-95.26-57.34-.31-4.2,40.2-41.43,43.93-41.47,2.42-.03,5.4,27.04,11.41,30.02,4.39,5.13,11.23,5.14,16.43.41,15.2-13.83,18.17-96.1,33.72-117.01-5.37-21.19-37.37,9.86-45.04,16.14-44.55,36.49-75.91,79.93-118.31,117.5,1.96-19.12,18.46-39.23,20.63-58.94.35-3.16,1.71-13.38-3.77-14.6-10.66-2.36-103.25,52.35-107.46,48.99ZM2051.35,476.61c-19.79-25.62-55.14-49.8-77.19-78.29-7.06-9.12-8.37-26.07-26.6-26.65-57.68-1.84-81.33,34.24-106.35,63.2-21.11,24.44-47.25,56.5-64.65,82.05-9.46,13.89-21.97,26.3-8.95,42,5.46,6.58,55.05,31.32,67.68,39.33,36.2,22.93,78.21,53.02,109.11,79.3,6.2,5.28,37.17,38.34,42.03,38.71,10.24.77,13.39-29.41,15.64-35.9,5.6-16.15,11.87-32.47,18.89-48.36,5.88-13.3,42.3-73.16,41.71-79.75-.72-8.04-17.92-18.04-29.75-13.27-14.42,5.82-40.37,52.89-47.21,65.69-8.29,15.52-14.37,31.64-21.93,47.31l-131.48-101.26,218.75-60.63c11.37-4.66,3.88-8.8.28-13.47ZM1791.1,404.68c-5.06,3.62-9.84,72.43-13.03,82.57l80.95-96.64c-9.28,2.64-64.18,11.4-67.93,14.08ZM894.82,534.31c1.32.91,17.83-6.7,18.6-8.19,1.44-2.8-3.86-9.67-2.27-13.28-2.25,1.88-17.57,20.61-16.32,21.47ZM1168.19,602.34c1.17,4.96-.86,11.68,0,16.88,6.4-6.07,66.81-41.96,65.37-44.98-1.62-3.4-76.64-34.47-85.45-40.89-29.47,48.87-76.53,89.93-125.21,130.18,6.4,3.18,17.73,47.2,21.22,46.71,2.97-.41,15.33-34.74,17.93-39.82,9.24-18.08,42.64-77.14,68.65-83.66,18.58-4.66,34.41,2.55,37.49,15.58Z"/>
    <path class="cls-4" d="M1923.94,413.73l71.81,62.77-179.06,50.63,107.24-113.41ZM1927.38,437.16c-4.69-1.71-54.15,55.83-59.4,60.34l93.54-26.06c-8.15-3.13-31.48-33.3-34.14-34.27Z"/>
    <path class="cls-7" d="M1706.02,425.91c4.09,3.01-14.64,71.88-10.34,82.13l-5.98,1.73c1.72-9.66-18.26-75.54-14.87-78.75.94-.89,30.1-5.92,31.2-5.11Z"/>
    <path class="cls-7" d="M933.44,641.71c-8.25-2.34-68.3-14.06-69.82-16.37-1.64-2.49,51.17-33.52,55.71-38.83l14.11,55.2Z"/>
    <path class="cls-7" d="M1927.38,437.16c2.67.97,25.99,31.14,34.14,34.27l-93.54,26.06c5.25-4.51,54.71-62.05,59.4-60.34Z"/>
  </g>
  <g>
    <g>
      <path class="cls-2" d="M635.36,706.24c-.43,13.89-1.17,47.16-9.99,57.51-8.17,9.59-19.34-2.4-20-1.51-2.11,55.79-19.74,111.15-57.99,152.5,22.24,10.95,46.73,29.51,42.53,57.55-3.14,21-22.12,29.49-40.34,34.66-44.58,12.67-100.58,13.82-135.73-20.71-29.49,6.84-59.55,11.45-89.85,13.13-2.9,1.12-1.22,7.26-1.75,10.25-8.28,46.12-95.16,44.1-129.92,37.14-32.55-6.52-70.73-32.81-39.99-67.03-56.82-22.96-110.89-61.75-128.69-123.29C.21,775.47-7.15,698.69,7.68,615.06c10.47-59.04,32.11-114.96,51.68-171.31-5.33-43.14-33.37-76.98-42.34-120.67C-9.04,195.99,68.27,99.52,189.33,72.71c6.08-1.35,40.71-6.06,42.42-7.36,1.07-.82,4.43-21.87,5.91-26.31,1.69-5.09,4.49-11.14,7.28-15.72,19.08-31.23,52.37-25.59,46.91,13.91,11.68-14.71,38.99-45.77,60.03-35.02,14.21,7.26,11.38,25.73,6.48,38.03,29.84-20.16,50.39-.4,33.99,30.99,71.57,8.82,129.21,60.67,147.51,130,6.79,25.74,2.62,41.52,4.74,65.24.92,10.28,12.78,26.89,16.77,38.25,16.67,47.47,4.02,96.42-31.94,130.87,54.07,52.79,92.81,130.1,102.77,205.29,2.75,20.73,2,37.92,2.15,58.35l1,7Z"/>
      <path class="cls-6" d="M635.36,706.24c-1.76-1.56-.98-4.85-1-7,1.7,1.52,1.07,4.9,1,7Z"/>
      <path class="cls-3" d="M528.36,190.24c9.3,19.96,3.15,52.58,3.11,73.61-.03,16.32,13.87,35.33,18.6,52.18,14.41,51.28-.89,87.22-32.71,126.21l.51,2.51c-16.92,16.08-22.26,24.46-7.87,45.64,13.61,15.86,25.73,32.47,36.36,49.85,16.64,26.29,29.21,74.07,35.69,104.81,15.88,75.33,22.77,161.5-16.52,230.86-48.37,85.39-152.59,111.08-244.13,116.29-9.9-46.59-78.37-51.13-116.04-42.96l-4.37-.83c-83.67-58.03-72.5-146.82-40-230.97.25-.64.79-1.17,1.37-1.72s1.28-1.03,2-1.47c2.74-.23,5.54-.41,8.24.2,52.45,12.81,106.96,25.83,160.82,20.65,7.86-1.74,15.5-2.36,22.94-1.86.49.58,1.11,1.4.82,1.97-1.21,2.41-6.56,10.72-8.26,12.76l-2.56.27-2.81,1.82-113.71-7.58,49.8,104.79-1.28,1.96c39.33,4.24,79.01,6.88,119.03,7.91l1.97,1.09-.2-3.33,63.22-95.66c.29-2.14,1.28-3.15,2.97-3.01l-2.95-1.58-48.48-103.47-25.26,34.3-2.31-.24-2.49-2.04c-7.36-26.15-24.18-48.83-42.19-68.74l-.32-3.22c1.21-8.39,7.98-18.17,15-23l2.83-1.81,112.68,7.57-49.52-104.14c.28-1.54.47-3.1.01-4.61l-.25,1.24c-38.52-1.36-77.25-3.39-116.18-6.09l-2.57-2.15.22,3.32c-13.96,21.26-27.92,42.52-41.88,63.77l-2.34-.09-4.33-.45c-4.76-2.53-25.99-14.83-27.64-17.39-.43-.66-.74-1.4-1.03-2.16l-3.06-4.35c-7.1-28.72-22.04-54.56-38.85-78.62-50.58-66.28-102.44-137.34-71.5-224.12,21.83-61.24,78.07-94.65,142.56-85.82,41.87,5.73,78.35,27.2,112.75,48.57,13.49,7.29,15.15,7.61,27.06-2.89,28.77-32.09,63.45-46.56,103.52-22.44,12.18,7.33,26.3,20.49,29.52,34.68Z"/>
      <path class="cls-5" d="M205.36,949.24c-15.49,3.36-26.49,9.38-39.33,18.17-3.17,2.17-4.88,6.43-9.07,5.83-39.62-16.32-87.65-44.83-108.15-83.96-38.13-72.78-43.88-194.47-29.98-274.07,10.86-62.16,35.77-113.83,51.29-172.71,3.89-14.76-.02-19.75-5.29-33.26-23.85-61.1-47.36-88.1-37.36-160.39,13.64-98.57,84.14-148.63,176.67-166.33,5.79-1.11,37.56-4.71,39.24-5.76,1.59-.99,6.09-30.36,8.48-36.52,3.16-8.13,16.04-30,26.79-22.08,5.09,3.75-2.4,46.77,1.62,49.63,2.34,1.67,5.74-.37,7.71-1.93,9.55-7.53,20.9-28.72,32.49-38.96,17.36-15.33,37.9-22.03,24.73,10.67-6.74,16.73-18.76,27.51-21.6,47.4-.81,5.68-1.6,13.23,5.82,7.82,5-3.64,15.54-23.37,21.95-30.05,4.13-4.31,13.39-11.77,18.65-14.35,24.32-11.94,14.57,10.64,7.74,22.74-4.86,8.63-20.44,26.06-22.18,33.81-.72,3.22-1.09,7.72,3.3,7.21,5.74-.67,22.33-27.82,27.95-31.96,59.45,14.43,117.19,35.44,138.97,98.07,1.1,3.16,3.33,8.72,2.54,11.96-6.82-14.64-23.01-30.04-37.64-36.86-32.42-15.09-55.65-8.02-81.82,13.89-7.79,6.52-18.16,21.89-29.02,20.97-7.06-.6-38.08-21.57-47.48-26.53-27.14-14.31-57.36-26.77-88.48-28.52-99.2-5.58-155.11,86.47-133.24,177.24,19.83,82.31,97.81,132.03,115.7,214.8l-3.15-.32c-32.19-18.76-64.98-34.74-98.37-47.94l-3.49-.3c66.5,32.46,134.41,66.49,190.27,115.85,23.23,20.53,50.58,48.76,63.24,76.96,38.74,86.33-114.12,56.94-155.44,47.98-56.52-12.26-113.97-30.47-165.6-54.65,13.01,12.62,29.84,20.85,46.6,27.51,18.9,7.5,38.43,14.24,58.09,20.13,2.22.76,4.08,2.3,5.86,3.78-24.18,62.26-42.61,135.29-1.22,194.72,11.54,16.57,26.37,28.15,42.22,40.28Z"/>
      <path class="cls-9" d="M221.17,952.55c34.18-2.86,104.52,10.82,92.91,58.92-9.61,39.81-99.26,33.73-128.93,26.5-11.13-2.71-26.2-11.89-32.19-21.81-5.92-9.8-4.25-16.11,1.22-25.6,13.23-22.99,41.15-35.84,67-38Z"/>
      <path class="cls-5" d="M546.36,540.24c-10.7-16.91-39.02-45.05-44.72-60.78-7.01-19.37,5.53-24.73,15.72-37.22,60.76,58.81,102.16,147.9,108.99,232.51,1.3,16.14,3.89,70.33-4.99,81.99-3.8,4.99-13.04,3.95-15.49-.52-1.54-2.8-.23-22.28-.53-27.47-4-69.01-22.76-152.69-61.35-210.65-1.85-2.78-14.95-21.35-16.24-21.77-2.86-.91-3.77,1.64-3.19,4.14.8,3.47,13.11,20.76,15.97,26.08,2.25,4.19,5.07,8.93,5.83,13.67Z"/>
      <path class="cls-9" d="M424.37,983.26c32.51-9.37,65.42-22.62,92.91-42.6,3.6-2.62,22.04-19.33,23.56-19.38,7.65-.28,32.43,19.93,36.72,27.28,22.81,39.1-27.98,52.93-55.83,56.55-32.81,4.27-73,3.33-97.36-21.85Z"/>
      <path class="cls-2" d="M226.36,525.24c10.71,6.36,22.92,13.25,33,20,.91,0,1.81.03,2.69.21s1.7.35,2.33.79c15.79,10.94,30.87,22.97,45.56,35.35.61.51,1.02,1.28,1.43,2.08s.72,1.68.98,2.58l4.67,1.3c8.36,6.66,16.46,13.61,24.3,20.84l.03,2.86c17.25,17.67,40.25,49.57,45,74,4.93,4.32,3.81,16.98,1.92,23.27-2.74,9.13-7.99,13.89-15.54,19.24-3.39,2.4-12.72,6.51-16.38,5.49-40.82,9.61-84.27,4.07-125.02-3.48-22.23-4.12-45.25-9.37-66.98-15.52-17.05-4.83-34.88-10.8-51.52-16.98-23.39-8.69-48.68-19.03-65.48-38,10.09,1.2,18.85,7.7,28.02,11.47,66.71,27.48,200.13,67.5,270.21,54.24,63.51-12.01,21.87-71.17-3.71-99.74-59.17-66.07-144-109.02-222.51-147.5-1.76-8.18,19.52,2.41,21.67,3.34,28.04,12.08,59.05,28.56,85.33,44.17Z"/>
      <path class="cls-8" d="M386.36,685.24l27.99-38,51.01,109-1.33,1.93-114.25-6.06,50.2,102.83-.62,3.3c-1.85,1.71-5.2,1.12-7.55,1.03-32.6-1.13-70.47-3.76-102.94-7.05-2.73-.28-11.5-.43-10.51-2.98,19.89-32.05,41.32-65.51,63.56-96.88l4.44-4.12c2.32-3.36,7.63-13.13,10-15,3.13-2.47,11.02-4.46,15.32-7.18,15.86-10.06,18.05-23.49,14.68-40.82Z"/>
      <polygon class="cls-1" points="465.36 756.24 464.44 759.78 399.36 858.24 346.39 749.74 465.36 756.24"/>
      <path class="cls-8" d="M422.36,485.24l.87,4.57c-18.91,33.67-41.72,65.61-64.27,96.91l-2.6,1.53c-5.02,7.64-10.4,15.09-15,23-7.25-7.44-20.49-17.79-29-25l1.36-1.51c12.82-1.16,25.83-.77,39.04,1.17l-50.04-104.38.64-3.28,119,7Z"/>
      <path class="cls-6" d="M422.36,485.24l52.99,110.99-118.99-7.99c20.23-30.81,47.16-66.53,64.44-98.06.89-1.63,1.78-2.94,1.56-4.94Z"/>
      <path class="cls-6" d="M346.36,748.24c-22.32,32.38-42.66,66.17-65.01,98.54-.86,1.24-.77,2.94-2.99,2.46l-51.99-108.99,119.99,7.99Z"/>
      <path class="cls-1" d="M303.36,478.24l52.01,108.5-1.44,1.45c-13.55-.88-28.24-3.72-41.57-1.95-16.47-13.95-35.63-29.38-53-41l44-67Z"/>
      <path class="cls-1" d="M255.14,234.44c13.71-1.75,24.88,21.99,27.72,32.81,2.85,10.89,6.53,29.54-8.43,32.55-7.42,1.49-34.75-1.92-40.58-6.53-14.59-11.57,4.29-56.66,21.3-58.83Z"/>
      <path class="cls-1" d="M484.12,234.44c12.37-2.19,22.79,24.95,23.98,34.57,2.63,21.23-7.1,24.71-26.37,26.1-19.2,1.39-20.81-8.42-18.11-25.1,1.53-9.44,9.72-33.66,20.5-35.57Z"/>
      <path class="cls-3" d="M258.08,246.46c15.07-3.44,15.51,23.68,4.74,25.77-14.56,2.83-14.95-23.44-4.74-25.77Z"/>
      <path class="cls-3" d="M496.11,269.97c-10,9.16-17.25-21.62-7.01-24.55,9.83-2.81,13.11,18.96,7.01,24.55Z"/>
      <path class="cls-9" d="M393.26,292.19c3.15-.31,31.44,8.26,33.44,17.27.76,3.42-1.48,7.06-3.16,10.12-3.77,6.92-9.77,11.69-16.61,15.58-5.3,3.21-11.03,5.18-17.05,4.04-13.57-1.96-50.01-15.3-42.19-28.06,3.01-4.3,8.41-7.49,13-10.18,10.11-5.49,14.25-6.42,19.43-7.57,3.56-.79,4.18-.81,5.75-1.02,2.9-.4,7.39-.17,7.39-.17Z"/>
    </g>
    <g>
      <path d="M380.12,293.38l-18.15,8.1c-3.7,2.44-14.18,8.75-13.16,13.67,2.13,10.34,32.61,23.85,42.72,23.83,12.34-.03,27.11-11.71,32.02-22.56,5.73-12.67-11.16-18.21-13.98-19.27l-16.3-4.96c8.34-1.29,35.77,7.9,35.42,17.42-.27,7.25-12.19,19.6-17.9,23.77-17.11,12.48-35.26,6.54-51.78-3.57-31.11-19.04.61-32.37,21.12-36.42Z"/>
      <path d="M422.77,311.19c-17.34,13.1-42.41,7.88-62.47,4.93-.24-1.72,2.25-.93,3.45-.98,20.04-.75,39.64,2.72,59.02-3.95Z"/>
    </g>
  </g>
</svg>