<?xml version="1.0" encoding="UTF-8"?>
<svg id="Layer_1" xmlns="http://www.w3.org/2000/svg" version="1.1" viewBox="0 0 1676 1064">
  <!-- Generator: Adobe Illustrator 29.5.1, SVG Export Plug-In . SVG Version: 2.1.0 Build 141)  -->
  <defs>
    <style>
      .st0 {
        fill: #001909;
      }

      .st1 {
        fill: #1d1d1d;
      }

      .st2 {
        fill: #030403;
      }

      .st3 {
        fill: #fdfcf3;
      }

      .st4 {
        fill: #2cda82;
      }

      .st5 {
        fill: #666;
      }

      .st6 {
        fill: #383838;
      }

      .st7 {
        fill: #f7b142;
      }
    </style>
  </defs>
  <g>
    <path class="st4" d="M970.58,256.09c11.52-.7,22.98,1.71,32.92,7.58,2.75,1.62,13.04,10.87,14,10.35.42-.23,4.83-6.34,6.04-7.47,24.42-22.76,85.25-77.85,104.05-21.46,13.45-6.15,30.44-16.05,44.92-6.44,2.58,1.71,7.95,9.36,9.52,9.45,1.3.07,17.86-10.47,22.27-11.79,7.89-2.37,15.38-1.3,22.21,3.34,3.7,2.51,11.61,14.3,12.56,14.33.79.02,10.68-7.46,13.19-8.71,12.23-6.11,23.51-9.41,35.64-1.01,3.22,2.23,12.79,14.83,14.15,14.84,1.49,0,21.58-13.44,25.5-15.53,20.89-11.15,37.6-18.55,61.8-11.76,3.76,1.06,10.29,5.04,12.82,5.26,1.09.1,10.74-1.15,11.42-1.47,2.54-1.21,5.68-21.46,8.96-27.04,8.75-14.91,56.59-41.22,73.58-41.48,20.59-.32,26.45,16.88,25.43,34.49-.31,5.34-7.26,33.32-5.97,34.51,1.08,1,23.3-2.73,29.4-1.9s15.16,7.86,16.07,7.89c1.45.05,19.38-10.82,23.56-12.44,39.24-15.18,52.22,15.36,62.23,46.7,8.1,25.34,19.42,66.01,11.99,91.52-.85,2.92-5.24,11.51-5.2,12.75.05,1.51,7.38,11.13,8.82,14.11,24.37,50.54-23.37,91.83-63.85,112.91-5.11,2.66-21.28,7.94-23.49,11.51-6.29,10.17,9.22,52.37-14.98,47.91-17.2-3.17-1.11-40.45-11.23-43.85-8.25-2.77-8.37,17.93-8.37,22.44,0,21.35,7.01,51.39,5.02,70.94-1.97,19.31-24,18.41-26.74,2.77-2.06-11.76,2.37-33.67,2.79-46.72.45-14.04,1.38-42.07-4.84-54.24-1.38-2.7-17.97-19.32-19.51-19.16-1.03.11-13.78,10.5-16.77,12.28-8.83,5.25-18.65,9.22-28.92,10.59,32.03,26.65,16.09,69.8-18.65,84.84-10.05,4.35-23.03,4.54-28.09,15.91-4.15,9.31-3.6,24.57-3.31,34.79.45,15.74,5.59,40.61,4.04,54.95-1.07,9.94-8.19,13.62-17.49,12.49-12.22-1.49-11.81-12.7-11.48-22.47.62-18.85,8.62-73.12,1.55-87.59-5.81-11.88-25.23-14.06-27.47,1.66-1.81,12.65,12.64,48.94-11.61,46.43-17.58-1.82-9.24-30.05-9.4-41.53-.32-22.64-10.65-23.99-29.6-26.47-60.65-7.93-137.86-2.56-198.96,4-20.63,2.22-78.88,7.55-95.21,14.79-24.29,10.78,4.59,58.54-17.88,62.13-23.39,3.74-10.64-31.52-11.66-43.16-.95-10.85-10.22-15.95-15.64-5.16-3.83,7.63-2.46,47.78-2.17,58.91.36,13.76,4.67,38.77,2.94,50.87-2.4,16.81-25.9,16.43-27.9-.91,1.16-30.91,8.43-65.23,6.03-96.04-2.23-28.53-29.12-37.68-31.9-68.1-4.12-45.11,40.18-58.97,75.86-65.86l-13.31-10.33c-23.14,15.66-54.06,28.18-82.31,20.96-5.71-1.46-19.97-10.06-21.96-10.14-2.31-.1-16.95,9.71-21.43,11.5-16.41,6.54-27.39,5.78-42.31-3.65-1.71-1.08-4.08-4.38-5.31-4.62-1.12-.22-15.08,5.48-18.37,6.28-43.79,10.69-85.1-15.43-91.72-60.28-3.91-26.52,4.93-53.69,15.86-77.58,2.61-5.7,18.64-32.82,18.86-35.2.24-2.62-5.92-12.9-7.05-16.89-7.9-28.08,8.58-44.08,27.52-61.57,26.55-24.52,72.88-59.14,110.74-47.69,5.4,1.63,18.18,10.77,19.29,10.69,1.77-.12,2.16-15.29,2.65-18.32,1.38-8.59,3.24-17.36,8.42-24.58,6.5-9.07,59.76-44.77,70.37-46.63,23.91-4.19,35.7,12.76,33.93,34.93-2.13,26.67-13.58,55.78-16.88,82.63ZM941.58,287.08c8.12-40.37,19.06-80.56,23.92-121.42-3.87-12.75-13.13-8.51-21.94-4.09-9.62,4.82-44.99,27.46-49.36,35.64-5.26,9.85-3.25,23.74-4.9,35.1-.65,4.45-7.1,37.64-8.74,38.77-2.19,1.51-4.25-5.81-5.18-7.31-30.42-49.01-79.45-23.33-114.72,3.9-19.39,14.97-40.25,31.51-27.28,58.11,1.71,3.51,11,13.9,10.92,14.81-.08.99-10.28,13.27-11.95,15.77-13.68,20.59-27.39,46.21-29.64,71.36-5.86,65.53,49.05,91.39,101.34,57.34,7.27,23.5,23.89,19.43,41.88,10.88,3.39-1.61,18.04-11.71,19.16-11.61.63.05,7.91,6.83,9.75,7.99,26.18,16.4,55.26,7.19,79.65-7.82,3.35-2.06,18.39-14.25,19.6-14.22,1.3.03,14.95,15.52,18.57,18.22,23.74,17.73,52.95,13.1,77.58-.25,3.25-1.76,18.67-13.04,19.85-12.91,2.15.24,8.62,17.14,21.98,18.74,15.8,1.89,26.86-3.78,40.16-10.83,1.9-1.01,6.23-4.86,7.06-5.05,1.61-.36,8.14,4.27,11.87,4.79,14.65,2.02,25.33-6.78,36.9-13.92,6.35,26.34,26.48,30.42,49.2,19.2,3.15-1.55,13.83-10.3,14.71-10.14.74.13,5.37,6.51,7.09,7.98,16.83,14.37,37.55,13.37,57.2,5.16,2.73-1.14,13.96-8.25,14.8-8.2.5.03,2.06,4.67,3.09,5.95,9.3,11.61,20.54,8.22,32.63,2.77,4.08-1.84,18.02-12.83,19.15-12.63,1.83.32,7.01,8.07,9.11,9.95,29.73,26.65,60.66,6.73,83.03-18,37.3,55.44,104.68,21.79,138.53-18.5,15.86-18.88,18.16-42.32-.54-60.51-2.14-2.08-9.18-5.56-9.49-6.03-.63-.96,10.28-15.8,11.75-19.73,8.49-22.6-5.79-74.91-14.74-97.77-12.42-31.74-22.3-30.41-50.37-15.34-4.66,2.5-15.06,10.69-18.16,11.84-2.16.8-2.07-7.54-4.49-8.48l-6.55-4.45c-6.43-1.55-49.39,4.98-51.44,2.93-2.25-2.24,11.54-50.09,8.33-62.82-1.59-6.31-5.69-6.8-11.58-5.93-7.56,1.12-47.69,21.12-52.17,26.83-5.01,6.39-7.95,39.65-9.72,40.78-.76.49-14.29.64-18.07,1.43-3.04.63-12.2,4.81-13.21,4.74-1.57-.12-8.53-5.34-11.59-6.51-20.5-7.8-45.56,2.23-63.65,12.32-5.2,2.9-27.1,19.86-28.84,20.16s-7.38-25.52-21.99-27.02c-13.01-1.34-32.61,15.71-43.01,23.02-1.99-10.42-7.15-25.39-20.03-26.04-12.14-.61-30.12,17.32-35.83,16.12-1.32-.28-5.23-18.51-17.98-18.03-8.78.33-35.09,18.25-36.64,16.95-.39-.32-1.85-7.53-2.83-9.68-9.19-20.2-17.98-26.15-38.85-15.49-24.09,12.31-45.76,34.47-63.92,54.13-5.37-4.61-7.97-11.58-13.92-15.95-17.68-13.01-37.51-3.93-55.5,2.99ZM1130.38,504.39c-41.56,1.4-162.07,9.8-193.3,33.7-26.76,20.48-11.37,61.76,21.14,63.88,17.96,1.17,65.78-11.46,87.04-14.71,111.61-17.05,222.86-22.78,334.52-2.88,24.67,4.4,49.34,16.33,65.6-13,20.32-36.65-23.74-45.34-48.62-49.98-82.44-15.37-182.45-19.84-266.38-17.02Z"/>
    <path class="st4" d="M1444.35,95.31c20.71-2.87,20.56,31.51-1.03,27.54-13.97-2.57-14.24-25.43,1.03-27.54Z"/>
    <path class="st4" d="M727.24,237.44c11.2,11.19-4.04,31.17-17.16,19.66-13.23-11.62,4.89-31.92,17.16-19.66Z"/>
    <path class="st4" d="M1025.93,156.44c10.39-9.61,26.12,4.48,18.1,16.6-9.89,14.95-30.5-5.13-18.1-16.6Z"/>
    <path class="st4" d="M899.29,61.31c19.32-4.52,20.47,25.36,2.79,23.82-12.96-1.13-14.21-21.15-2.79-23.82Z"/>
    <path class="st4" d="M1466.3,638.31c16.13-3.72,19.47,20.22,6.53,22.57-15.48,2.82-18.92-19.71-6.53-22.57Z"/>
    <path class="st4" d="M854.35,540.28c13.23-1.38,16.8,20.35,3.67,22.76-15.68,2.88-19.69-21.09-3.67-22.76Z"/>
    <path class="st4" d="M858.33,169.33c15.29-3.01,18.02,19.72,4.49,21.58s-16.96-19.12-4.49-21.58Z"/>
    <path class="st4" d="M1265.27,149.77c-8.3,7.16-22.44-2.75-15.53-14.03,8.39-13.69,27.42,3.77,15.53,14.03Z"/>
    <path class="st4" d="M1077.35,49.29c12.86-2.05,16.1,17.14,5.52,19.59-15.98,3.7-17.21-17.73-5.52-19.59Z"/>
    <path class="st4" d="M1390.35,163.29c15.08-2.13,15.29,25.23-2.72,19.25-8.06-2.68-6.9-17.89,2.72-19.25Z"/>
    <path class="st4" d="M1152.32,181.29c12.91-2.79,14.6,16.17,6.56,18.58-15.64,4.69-16.72-16.39-6.56-18.58Z"/>
    <path class="st4" d="M1173.31,626.31c14.01-3.18,14.65,15.84,4.54,17.63-10.79,1.91-14.5-15.36-4.54-17.63Z"/>
    <path class="st4" d="M987.26,107.42c9.29,9.99-7.96,22.1-13.72,11.23-5.31-10.01,6.87-18.61,13.72-11.23Z"/>
    <path class="st4" d="M1287.35,193.29c13.45-2.21,14.16,21.4-1.82,16.35-7.23-2.29-6.94-14.91,1.82-16.35Z"/>
    <path class="st4" d="M1163.32,94.27c11.57-2.32,13.61,15.73,2.66,16.82-10.35,1.03-12.85-14.78-2.66-16.82Z"/>
    <path class="st4" d="M1089.33,627.27c11.91-2.44,13.82,14.58,4.53,16.62-11.17,2.46-13.48-14.79-4.53-16.62Z"/>
    <path class="st4" d="M844.9,101.42c6.86-6.46,17.08,3.4,11.27,10.77-6.7,8.5-19.31-3.2-11.27-10.77Z"/>
    <path class="st4" d="M1554.33,183.25c8.36-1.53,13.01,12.43,3.54,14.63-11.83,2.75-12.08-13.06-3.54-14.63Z"/>
    <path class="st4" d="M794.29,605.79c-11.59,8.94-17.49-15-4.31-13.69,6.45.64,8.97,10.08,4.31,13.69Z"/>
    <path class="st4" d="M875.84,605.36c8.16-7.18,17.1,7.62,8.13,12.61-8.82,4.91-13.68-7.73-8.13-12.61Z"/>
    <path class="st4" d="M721.33,536.27c13.47-2.77,10.7,20.28-1.13,13.71-5.14-2.85-5.06-12.43,1.13-13.71Z"/>
    <path class="st4" d="M693.32,366.36c6.44,5.96-2.37,17.51-9.71,11.2-6.44-5.54,1.65-18.66,9.71-11.2Z"/>
    <path class="st4" d="M1000.3,236.31c13.15-3.91,12.45,18.5-.47,13.03-5.91-2.5-5.32-11.3.47-13.03Z"/>
    <path class="st4" d="M1069.33,113.27c8.75-1.67,11.36,11.56,4.54,13.6-10.87,3.26-12.69-12.04-4.54-13.6Z"/>
    <path class="st4" d="M1604.25,559.36c7.2-.24,7.51,14.23-1.09,13.71-7.75-.46-7.59-13.43,1.09-13.71Z"/>
    <path class="st4" d="M815.25,158.27c9.41-3.23,12.96,10.23,5.35,12.41-9.43,2.7-10.02-10.81-5.35-12.41Z"/>
    <path class="st4" d="M1258.83,625.33c5.87-5.83,17.06,4.6,9.33,9.83-6.92,4.68-14.03-5.16-9.33-9.83Z"/>
    <path class="st4" d="M1192.31,178.24c9.09-2.43,11.76,11.56,3.55,12.69-7.49,1.03-8.36-11.4-3.55-12.69Z"/>
    <path class="st4" d="M1345.32,204.25c10.14-2.59,8.92,15.5-.71,11.32-4.55-1.97-3.91-10.15.71-11.32Z"/>
    <path class="st4" d="M746.83,207.85c-3.69-3.61,1.17-13.03,7.33-8.83,7.11,4.86-1.4,14.63-7.33,8.83Z"/>
    <path class="st4" d="M981.83,89.85c-4.1-4.03,1.62-12.39,7.35-7.85,5.25,4.15-1.98,13.14-7.35,7.85Z"/>
    <path class="st4" d="M1119.71,45.95c-1.67-1.04-3.39-7.2,1.44-7.88,9.63-1.37,3.64,11.06-1.44,7.88Z"/>
    <path class="st0" d="M941.58,287.08c17.98-6.91,37.81-15.99,55.5-2.99,5.95,4.38,8.55,11.35,13.92,15.95,18.15-19.65,39.83-41.82,63.92-54.13,20.87-10.66,29.66-4.71,38.85,15.49.98,2.15,2.45,9.36,2.83,9.68,1.55,1.3,27.86-16.62,36.64-16.95,12.75-.48,16.66,17.75,17.98,18.03,5.71,1.19,23.68-16.73,35.83-16.12,12.89.64,18.04,15.62,20.03,26.04,10.4-7.31,30-24.36,43.01-23.02,14.61,1.5,20.2,27.33,21.99,27.02s23.64-17.26,28.84-20.16c18.1-10.09,43.15-20.12,63.65-12.32,3.07,1.17,10.02,6.39,11.59,6.51,1.01.07,10.17-4.11,13.21-4.74,3.78-.79,17.3-.94,18.07-1.43,1.78-1.13,4.72-34.39,9.72-40.78,4.48-5.71,44.61-25.71,52.17-26.83,5.89-.87,9.99-.38,11.58,5.93,3.22,12.73-10.58,60.57-8.33,62.82,2.05,2.04,45.01-4.48,51.44-2.93l6.55,4.45c2.42.94,2.33,9.28,4.49,8.48,3.1-1.15,13.51-9.34,18.16-11.84,28.07-15.07,37.95-16.4,50.37,15.34,8.95,22.87,23.23,75.18,14.74,97.77-1.48,3.93-12.39,18.77-11.75,19.73.31.47,7.35,3.95,9.49,6.03,18.7,18.19,16.4,41.63.54,60.51-33.84,40.3-101.23,73.94-138.53,18.5-22.37,24.73-53.3,44.66-83.03,18-2.11-1.89-7.28-9.63-9.11-9.95-1.13-.2-15.07,10.79-19.15,12.63-12.09,5.45-23.33,8.84-32.63-2.77-1.03-1.29-2.59-5.93-3.09-5.95-.84-.05-12.07,7.06-14.8,8.2-19.65,8.22-40.37,9.22-57.2-5.16-1.72-1.47-6.35-7.84-7.09-7.98-.88-.16-11.56,8.58-14.71,10.14-22.72,11.22-42.84,7.15-49.2-19.2-11.57,7.14-22.25,15.94-36.9,13.92-3.73-.52-10.26-5.15-11.87-4.79-.82.19-5.16,4.04-7.06,5.05-13.31,7.06-24.37,12.73-40.16,10.83-13.36-1.6-19.83-18.5-21.98-18.74-1.18-.13-16.61,11.15-19.85,12.91-24.64,13.35-53.84,17.98-77.58.25-3.62-2.71-17.27-18.19-18.57-18.22-1.21-.03-16.25,12.16-19.6,14.22-24.39,15.02-53.47,24.22-79.65,7.82-1.85-1.16-9.13-7.94-9.75-7.99-1.12-.09-15.76,10-19.16,11.61-17.99,8.55-34.61,12.62-41.88-10.88-52.29,34.05-107.21,8.18-101.34-57.34,2.25-25.15,15.96-50.76,29.64-71.36,1.67-2.51,11.87-14.79,11.95-15.77.07-.92-9.21-11.31-10.92-14.81-12.97-26.6,7.89-43.14,27.28-58.11,35.27-27.23,84.31-52.91,114.72-3.9.93,1.49,2.98,8.82,5.18,7.31,1.64-1.13,8.09-34.32,8.74-38.77,1.65-11.36-.36-25.25,4.9-35.1,4.37-8.18,39.74-30.82,49.36-35.64,8.82-4.42,18.08-8.66,21.94,4.09-4.86,40.86-15.81,81.05-23.92,121.42ZM946.58,182.1c-1.67-1.88-37.67,20.07-38.84,24.73-.48,1.92,1.11,7.25.83,10.74-.5,6.21-2.17,13.46-3.28,19.73-10.58,59.65-27.3,118.69-36.38,178.62-4.57,30.16,1.89,57.63,39.05,54.05,61.17-5.89,104.69-89.11,91.33-145.07-11.83-49.53-54.57-22.92-80.69-2.8l27.98-139.99ZM1470.59,273.09l13.5-65.99-34.6,14.65-8.91,51.35c-5.4-.7-28.34-2.65-31.07.41-3.07,3.44-.23,26.43,3.04,30.11,3.46,3.89,15.86,3.29,21.03,3.48-4.56,32.43-15.71,65.47-19.71,97.79-3.11,25.16-2.73,70.84,34.55,64.55,12.55-2.12,42.21-22.01,44.09-34.93.66-4.55-5.75-23.55-9.58-24.27-2.49-.47-21.88,19.55-30.94,13.93-5.9-3.66-3.03-24.87-2.27-31.42,3.24-27.91,12.65-56.66,16.29-84.71l43.32-4.68c1.71-.81,22.94-27.79,23.23-29.85.4-2.92-.3-4.59-3.44-4.47l-58.55,4.04ZM814.58,443.1c.87,1.02-.49,19.69,5.56,25.94,5.75,5.95,22.07-5.44,27.36-9.53,14.89-11.51,7.51-8.99,3.37-23.18-13.22-45.3,30.8-133.2,8.16-167.16-24.61-36.9-75.29-3.71-99.44,16.42-11.81,9.84-18.87,15.19-7.4,30.42,4.86,6.45,7.94,9.21,14.88,4.06,12.82-9.54,39.15-41.87,57.69-29.62,14.13,9.33,1.48,45.76.83,59.66-20-12.02-35.28-22.14-57.9-8.41-15.7,9.54-32.73,33.53-39.57,50.43-22.06,54.48,10.16,100.91,67,65,2.03-1.28,18.69-14.93,19.47-14.01ZM1064.22,425.73c-7.86,8-32.88,18.18-35.54.77-2.29-14.99,10.43-32.63-16.07-21.88-21.53,8.73-30.85,34.02-13.06,52.01,31.76,32.13,84.77-2.45,101.2-34.87,31.01-61.19-54.1-54.78-56.18-94.21-.49-9.23,15.26-30.99,22.52-24.46,4.78,4.3,8.23,28.39,16.23,29.85,5.02.92,28.78-15.9,29.2-21.39.62-7.91-14.86-43.93-21.99-47.91-9.38-5.23-26.28,7.96-34.27,13.64-31.27,22.23-68.31,64.32-26,96.62,14.83,11.32,56.87,28.5,33.95,51.82ZM1535.58,396.1c1.14-1.19,26.15-9.76,30.68-11.84,8.69-3.99,54.11-27.18,56.57-33.43,3.84-9.76-5.32-43.68-8.75-54.74-2.06-6.63-10.58-31.89-17.22-33.81-6.08-1.76-27.45,10.34-33.57,14-38.61,23.13-59.85,60.11-62.74,105.26-4.33,67.83,30.35,117.36,98.34,72.34,7.7-5.1,29.76-23.5,32.27-31.76,1.9-6.26-6.4-18.07-12.83-16.89-2.3.42-17.38,15.27-21.84,18.25-21.48,14.35-51.51,23.71-58.6-10.21-.47-2.27-2.91-16.56-2.31-17.19ZM1359.57,441.09c.11,6.35-.99,24.27,7.5,25.09,7.04.68,31.57-15.19,31.56-22.59,0-3.11-3.32-7.31-4.33-10.72-6.13-20.74,4.11-54.72,5.32-77.24,2.03-37.8-.31-101.1-55.56-82.56-7.73,2.6-41.94,20.28-44.04,26.98-1.9,6.06,6.06,23.41,12.1,24.07,3.38.37,16.42-11.27,21.42-13.57,23.36-10.73,31.75,6.12,33.09,26.99.19,2.98-.21,23.52-1.06,24.55-1.3,1.57-31.71-12.51-38.65-12.9-43.89-2.46-65.9,80.57-38.37,109.43,20.12,21.09,54.86-1.78,71.02-17.53ZM1155.59,311.09c-.97-6.63,3.98-29.92-1.58-33.93-5.94-4.29-28.19,6.85-29.81,13.15,1.29,29.47.27,58.85-2.76,88.15-2.86,27.63-8.7,55.21-11.39,82.64,7.8,7.19,33.96-7.25,36.77-14.25,4.83-34.14,5.81-68.67,9.02-102.98,2.92-3.83,24.13-27.43,27.3-16.86.89,2.97.58,8.35.47,11.63-1.08,33.46-12.26,70.19-13.02,102.98-.06,2.52-.23,8.71,1.47,10.48,4.75,4.92,30.06-10.82,32.72-16.3,1.93-3.98,2.24-12.43,2.78-17.22,2.82-25.11,3.92-50.59,6.23-75.77,8.74-12.96,29.89-33.25,28.76-2.23-1.34,36.96-14.9,79.19-16.03,117,1.33,15.76,29.15-1.92,34.04-9,2.17-3.14,3.36-6.33,3.89-10.11,2.58-18.45,2.86-38.82,5.25-57.75,2.86-22.59,15.21-70.66,4.67-89.94-9.99-18.27-23.71-6.94-35.7,1.91-8.65,6.38-16.71,14.61-25.1,21.39-1.87-10.75-.21-38.47-17.44-35.93-10.55,1.55-32.87,24.86-40.56,32.93ZM1493.59,334.09c-.67-.66-11.05-.39-11.09,3.41-1.04,7.01-11.94,57.35-9.91,59.58,1.19,1.31,8.3-4.94,8.72-6.77-1.12-7.38,14.32-54.2,12.27-56.23ZM1586.58,407.1c-1.79-1.58-23.83,6.2-25.98,8.51-4.31,4.63,3.74,3.87,7.24,3.24,2.08-.37,22.15-8.74,18.73-11.76Z"/>
    <path class="st0" d="M1130.38,504.39c83.93-2.82,183.94,1.65,266.38,17.02,24.88,4.64,68.95,13.33,48.62,49.98-16.26,29.33-40.93,17.39-65.6,13-111.66-19.9-222.91-14.17-334.52,2.88-21.25,3.25-69.07,15.88-87.04,14.71-32.51-2.12-47.9-43.4-21.14-63.88,31.23-23.9,151.73-32.31,193.3-33.7ZM1141.38,518.39c-32.06.85-64.44,3.05-96.28,6.72-20.96,2.42-81.09,9.8-96.45,21.55-11.44,8.74.2,25.27,10.56,28.39,149.92-29.35,307.18-40.92,457.87-9.87,8.89.23,21.45-12.63,11.85-19.93-10.82-8.23-93.46-17.23-111.86-19.14-57.62-5.98-117.7-9.26-175.68-7.72Z"/>
    <path class="st4" d="M1155.59,311.09c7.69-8.07,30.01-31.38,40.56-32.93,17.23-2.53,15.56,25.18,17.44,35.93,8.39-6.78,16.45-15.01,25.1-21.39,11.99-8.85,25.7-20.19,35.7-1.91,10.54,19.28-1.8,67.35-4.67,89.94-2.4,18.93-2.67,39.3-5.25,57.75-.53,3.78-1.72,6.96-3.89,10.11-4.89,7.08-32.72,24.76-34.04,9,1.13-37.81,14.69-80.04,16.03-117,1.13-31.02-20.02-10.73-28.76,2.23-2.31,25.18-3.41,50.66-6.23,75.77-.54,4.79-.85,13.24-2.78,17.22-2.66,5.47-27.97,21.22-32.72,16.3-1.71-1.77-1.53-7.97-1.47-10.48.76-32.79,11.95-69.52,13.02-102.98.11-3.28.42-8.66-.47-11.63-3.17-10.57-24.38,13.03-27.3,16.86-3.21,34.31-4.19,68.84-9.02,102.98-2.81,7.01-28.98,21.45-36.77,14.25,2.69-27.43,8.53-55.01,11.39-82.64,3.03-29.3,4.06-58.68,2.76-88.15,1.62-6.3,23.87-17.43,29.81-13.15,5.55,4.01.6,27.3,1.58,33.93Z"/>
    <path class="st4" d="M814.58,443.1c-.78-.91-17.44,12.73-19.47,14.01-56.85,35.91-89.06-10.52-67-65,6.84-16.9,23.87-40.89,39.57-50.43,22.61-13.74,37.9-3.61,57.9,8.41.64-13.9,13.3-50.32-.83-59.66-18.54-12.24-44.87,20.09-57.69,29.62-6.93,5.16-10.01,2.4-14.88-4.06-11.48-15.23-4.41-20.58,7.4-30.42,24.15-20.13,74.84-53.32,99.44-16.42,22.65,33.96-21.38,121.86-8.16,167.16,4.14,14.19,11.52,11.68-3.37,23.18-5.29,4.09-21.6,15.48-27.36,9.53-6.05-6.25-4.68-24.91-5.56-25.94ZM784.3,368.31c-19.42,4.36-47.62,77.74-2.94,66.06,8.61-2.25,31.06-15.23,32.99-24.01,2.19-9.94,2.4-22.12,4.8-32.27-9.67-4.86-23.83-12.25-34.85-9.78Z"/>
    <path class="st4" d="M946.58,182.1l-27.98,139.99c26.12-20.12,68.86-46.73,80.69,2.8,13.36,55.96-30.16,139.18-91.33,145.07-37.16,3.58-43.62-23.9-39.05-54.05,9.08-59.93,25.81-118.97,36.38-178.62,1.11-6.26,2.78-13.51,3.28-19.73.28-3.49-1.31-8.83-.83-10.74,1.18-4.66,37.17-26.61,38.84-24.73ZM944.34,334.36c-4.34.55-26.16,10.02-27.55,13.44l-12.23,69.85c5.88,28.87,35.19,1.84,44.24-10.84,12.13-16.99,33.6-77.31-4.46-72.45Z"/>
    <path class="st4" d="M1359.57,441.09c-16.16,15.74-50.89,38.62-71.02,17.53-27.53-28.86-5.52-111.89,38.37-109.43,6.94.39,37.35,14.47,38.65,12.9.85-1.02,1.25-21.57,1.06-24.55-1.34-20.87-9.74-37.73-33.09-26.99-5,2.3-18.04,13.93-21.42,13.57-6.04-.66-14-18.01-12.1-24.07,2.1-6.69,36.31-24.38,44.04-26.98,55.25-18.54,57.59,44.76,55.56,82.56-1.21,22.52-11.45,56.5-5.32,77.24,1.01,3.41,4.33,7.61,4.33,10.72,0,7.4-24.53,23.27-31.56,22.59-8.49-.82-7.39-18.74-7.5-25.09ZM1362.53,385.14c-11.11-.86-20.79-10.18-32.21-7.81-9.35,1.94-17.88,19.52-18.72,28.28-3.55,37.04,34.94,19.58,48.78,3.78l2.15-24.24Z"/>
    <path class="st4" d="M1535.58,396.1c-.6.63,1.84,14.92,2.31,17.19,7.09,33.91,37.12,24.55,58.6,10.21,4.46-2.98,19.54-17.82,21.84-18.25,6.44-1.18,14.73,10.62,12.83,16.89-2.51,8.27-24.57,26.67-32.27,31.76-67.99,45.01-102.67-4.52-98.34-72.34,2.88-45.16,24.12-82.14,62.74-105.26,6.12-3.67,27.49-15.76,33.57-14,6.64,1.92,15.17,27.18,17.22,33.81,3.43,11.06,12.59,44.97,8.75,54.74-2.46,6.25-47.88,29.44-56.57,33.43-4.53,2.08-29.54,10.65-30.68,11.84ZM1536.59,375.09c6.65-2.81,51.92-23.27,53.52-25.99,1.23-2.09-3.14-24.8-4.25-28.78-5.38-19.47-12.4-26.42-27.25-8.69-14.34,17.14-19.02,41.88-22.03,63.46Z"/>
    <path class="st4" d="M1470.59,273.09l58.55-4.04c3.14-.13,3.84,1.55,3.44,4.47-.28,2.06-21.51,29.04-23.23,29.85l-43.32,4.68c-3.64,28.05-13.05,56.81-16.29,84.71-.76,6.55-3.63,27.76,2.27,31.42,9.05,5.62,28.44-14.4,30.94-13.93,3.83.73,10.24,19.73,9.58,24.27-1.89,12.92-31.54,32.81-44.09,34.93-37.28,6.29-37.66-39.4-34.55-64.55,3.99-32.33,15.14-65.36,19.71-97.79-5.17-.19-17.57.42-21.03-3.48-3.27-3.68-6.11-26.67-3.04-30.11,2.73-3.06,25.67-1.12,31.07-.41l8.91-51.35,34.6-14.65-13.5,65.99Z"/>
    <path class="st4" d="M1064.22,425.73c22.92-23.32-19.12-40.5-33.95-51.82-42.31-32.31-5.27-74.39,26-96.62,7.99-5.68,24.89-18.87,34.27-13.64,7.14,3.98,22.61,40.01,21.99,47.91-.43,5.49-24.18,22.31-29.2,21.39-8-1.46-11.45-25.55-16.23-29.85-7.26-6.53-23.01,15.23-22.52,24.46,2.08,39.43,87.18,33.02,56.18,94.21-16.43,32.43-69.44,67-101.2,34.87-17.79-17.99-8.47-43.28,13.06-52.01,26.5-10.75,13.78,6.9,16.07,21.88,2.66,17.42,27.68,7.23,35.54-.77Z"/>
    <path class="st4" d="M1493.59,334.09c2.04,2.03-13.4,48.85-12.27,56.23-.42,1.83-7.53,8.08-8.72,6.77-2.03-2.23,8.87-52.57,9.91-59.58.04-3.8,10.42-4.08,11.09-3.41Z"/>
    <path class="st4" d="M1586.58,407.1c3.41,3.01-16.65,11.38-18.73,11.76-3.5.63-11.55,1.38-7.24-3.24,2.15-2.31,24.19-10.09,25.98-8.51Z"/>
    <path class="st4" d="M1141.38,518.39c57.98-1.54,118.06,1.74,175.68,7.72,18.4,1.91,101.04,10.91,111.86,19.14,9.61,7.3-2.96,20.16-11.85,19.93-150.69-31.05-307.96-19.48-457.87,9.87-10.35-3.12-21.99-19.65-10.56-28.39,15.37-11.75,75.49-19.12,96.45-21.55,31.84-3.68,64.22-5.87,96.28-6.72Z"/>
    <path class="st0" d="M784.3,368.31c11.02-2.47,25.18,4.92,34.85,9.78-2.4,10.15-2.61,22.33-4.8,32.27-1.93,8.78-24.38,21.76-32.99,24.01-44.68,11.68-16.48-61.71,2.94-66.06Z"/>
    <path class="st0" d="M944.34,334.36c38.06-4.86,16.6,55.47,4.46,72.45-9.05,12.68-38.37,39.71-44.24,10.84l12.23-69.85c1.39-3.42,23.21-12.89,27.55-13.44ZM933.59,400.09c2.12,2.44,9.82-11.49,10.47-13.02,4.75-11.18,9.34-29.29-8.31-14.31l-2.17,27.32Z"/>
    <path class="st0" d="M1362.53,385.14l-2.15,24.24c-13.83,15.81-52.33,33.26-48.78-3.78.84-8.76,9.37-26.34,18.72-28.28,11.43-2.37,21.1,6.95,32.21,7.81Z"/>
    <path class="st0" d="M1536.59,375.09c3.01-21.58,7.69-46.32,22.03-63.46,14.84-17.73,21.87-10.78,27.25,8.69,1.1,3.99,5.48,26.69,4.25,28.78-1.6,2.72-46.87,23.18-53.52,25.99Z"/>
    <path class="st4" d="M933.59,400.09l2.17-27.32c17.65-14.98,13.05,3.13,8.31,14.31-.65,1.53-8.35,15.46-10.47,13.02Z"/>
  </g>
  <g>
    <g>
      <path class="st2" d="M722.03,713.47c-.43,13.89-1.17,47.16-9.99,57.51-8.17,9.59-19.34-2.4-20-1.51-2.11,55.79-19.74,111.15-57.99,152.5,22.24,10.95,46.73,29.51,42.53,57.55-3.14,21-22.12,29.49-40.34,34.66-44.58,12.67-100.58,13.82-135.73-20.71-29.49,6.84-59.55,11.45-89.85,13.13-2.9,1.12-1.22,7.26-1.75,10.25-8.28,46.12-95.16,44.1-129.92,37.14-32.55-6.52-70.73-32.81-39.99-67.03-56.82-22.96-110.89-61.75-128.69-123.29-23.44-80.99-30.8-157.77-15.97-241.4,10.47-59.04,32.11-114.96,51.68-171.31-5.33-43.14-33.37-76.98-42.34-120.67-26.07-127.09,51.24-223.56,172.3-250.37,6.08-1.35,40.71-6.06,42.42-7.36,1.07-.82,4.43-21.87,5.91-26.31,1.69-5.09,4.49-11.14,7.28-15.72,19.08-31.23,52.37-25.59,46.91,13.91,11.68-14.71,38.99-45.77,60.03-35.02,14.21,7.26,11.38,25.73,6.48,38.03,29.84-20.16,50.39-.4,33.99,30.99,71.57,8.82,129.21,60.67,147.51,130,6.79,25.74,2.62,41.52,4.74,65.24.92,10.28,12.78,26.89,16.77,38.25,16.67,47.47,4.02,96.42-31.94,130.87,54.07,52.79,92.81,130.1,102.77,205.29,2.75,20.73,2,37.92,2.15,58.35l1,7Z"/>
      <path class="st5" d="M722.03,713.47c-1.76-1.56-.98-4.85-1-7,1.7,1.52,1.07,4.9,1,7Z"/>
      <path class="st3" d="M615.03,197.47c9.3,19.96,3.15,52.58,3.11,73.61-.03,16.32,13.87,35.33,18.6,52.18,14.41,51.28-.89,87.22-32.71,126.21l.51,2.51c-16.92,16.08-22.26,24.46-7.87,45.64,13.61,15.86,25.73,32.47,36.36,49.85,16.64,26.29,29.21,74.07,35.69,104.81,15.88,75.33,22.77,161.5-16.52,230.86-48.37,85.39-152.59,111.08-244.13,116.29-9.9-46.59-78.37-51.13-116.04-42.96l-4.37-.83c-83.67-58.03-72.5-146.82-40-230.97.25-.64.79-1.17,1.37-1.72s1.28-1.03,2-1.47c2.74-.23,5.54-.41,8.24.2,52.45,12.81,106.96,25.83,160.82,20.65,7.86-1.74,15.5-2.36,22.94-1.86.49.58,1.11,1.4.82,1.97-1.21,2.41-6.56,10.72-8.26,12.76l-2.56.27-2.81,1.82-113.71-7.58,49.8,104.79-1.28,1.96c39.33,4.24,79.01,6.88,119.03,7.91l1.97,1.09-.2-3.33,63.22-95.66c.29-2.14,1.28-3.15,2.97-3.01l-2.95-1.58-48.48-103.47-25.26,34.3-2.31-.24-2.49-2.04c-7.36-26.15-24.18-48.83-42.19-68.74l-.32-3.22c1.21-8.39,7.98-18.17,15-23l2.83-1.81,112.68,7.57-49.52-104.14c.28-1.54.47-3.1.01-4.61l-.25,1.24c-38.52-1.36-77.25-3.39-116.18-6.09l-2.57-2.15.22,3.32c-13.96,21.26-27.92,42.52-41.88,63.77l-2.34-.09-4.33-.45c-4.76-2.53-25.99-14.83-27.64-17.39-.43-.66-.74-1.4-1.03-2.16l-3.06-4.35c-7.1-28.72-22.04-54.56-38.85-78.62-50.58-66.28-102.44-137.34-71.5-224.12,21.83-61.24,78.07-94.65,142.56-85.82,41.87,5.73,78.35,27.2,112.75,48.57,13.49,7.29,15.15,7.61,27.06-2.89,28.77-32.09,63.45-46.56,103.52-22.44,12.18,7.33,26.3,20.49,29.52,34.68Z"/>
      <path class="st4" d="M292.03,956.47c-15.49,3.36-26.49,9.38-39.33,18.17-3.17,2.17-4.88,6.43-9.07,5.83-39.62-16.32-87.65-44.83-108.15-83.96-38.13-72.78-43.88-194.47-29.98-274.07,10.86-62.16,35.77-113.83,51.29-172.71,3.89-14.76-.02-19.75-5.29-33.26-23.85-61.1-47.36-88.1-37.36-160.39,13.64-98.57,84.14-148.63,176.67-166.33,5.79-1.11,37.56-4.71,39.24-5.76,1.59-.99,6.09-30.36,8.48-36.52,3.16-8.13,16.04-30,26.79-22.08,5.09,3.75-2.4,46.77,1.62,49.63,2.34,1.67,5.74-.37,7.71-1.93,9.55-7.53,20.9-28.72,32.49-38.96,17.36-15.33,37.9-22.03,24.73,10.67-6.74,16.73-18.76,27.51-21.6,47.4-.81,5.68-1.6,13.23,5.82,7.82,5-3.64,15.54-23.37,21.95-30.05,4.13-4.31,13.39-11.77,18.65-14.35,24.32-11.94,14.57,10.64,7.74,22.74-4.86,8.63-20.44,26.06-22.18,33.81-.72,3.22-1.09,7.72,3.3,7.21,5.74-.67,22.33-27.82,27.95-31.96,59.45,14.43,117.19,35.44,138.97,98.07,1.1,3.16,3.33,8.72,2.54,11.96-6.82-14.64-23.01-30.04-37.64-36.86-32.42-15.09-55.65-8.02-81.82,13.89-7.79,6.52-18.16,21.89-29.02,20.97-7.06-.6-38.08-21.57-47.48-26.53-27.14-14.31-57.36-26.77-88.48-28.52-99.2-5.58-155.11,86.47-133.24,177.24,19.83,82.31,97.81,132.03,115.7,214.8l-3.15-.32c-32.19-18.76-64.98-34.74-98.37-47.94l-3.49-.3c66.5,32.46,134.41,66.49,190.27,115.85,23.23,20.53,50.58,48.76,63.24,76.96,38.74,86.33-114.12,56.94-155.44,47.98-56.52-12.26-113.97-30.47-165.6-54.65,13.01,12.62,29.84,20.85,46.6,27.51,18.9,7.5,38.43,14.24,58.09,20.13,2.22.76,4.08,2.3,5.86,3.78-24.18,62.26-42.61,135.29-1.22,194.72,11.54,16.57,26.37,28.15,42.22,40.28Z"/>
      <path class="st7" d="M307.83,959.77c34.18-2.86,104.52,10.82,92.91,58.92-9.61,39.81-99.26,33.73-128.93,26.5-11.13-2.71-26.2-11.89-32.19-21.81-5.92-9.8-4.25-16.11,1.22-25.6,13.23-22.99,41.15-35.84,67-38Z"/>
      <path class="st4" d="M633.03,547.47c-10.7-16.91-39.02-45.05-44.72-60.78-7.01-19.37,5.53-24.73,15.72-37.22,60.76,58.81,102.16,147.9,108.99,232.51,1.3,16.14,3.89,70.33-4.99,81.99-3.8,4.99-13.04,3.95-15.49-.52-1.54-2.8-.23-22.28-.53-27.47-4-69.01-22.76-152.69-61.35-210.65-1.85-2.78-14.95-21.35-16.24-21.77-2.86-.91-3.77,1.64-3.19,4.14.8,3.47,13.11,20.76,15.97,26.08,2.25,4.19,5.07,8.93,5.83,13.67Z"/>
      <path class="st7" d="M511.03,990.48c32.51-9.37,65.42-22.62,92.91-42.6,3.6-2.62,22.04-19.33,23.56-19.38,7.65-.28,32.43,19.93,36.72,27.28,22.81,39.1-27.98,52.93-55.83,56.55-32.81,4.27-73,3.33-97.36-21.85Z"/>
      <path class="st2" d="M313.03,532.47c10.71,6.36,22.92,13.25,33,20,.91,0,1.81.03,2.69.21s1.7.35,2.33.79c15.79,10.94,30.87,22.97,45.56,35.35.61.51,1.02,1.28,1.43,2.08s.72,1.68.98,2.58l4.67,1.3c8.36,6.66,16.46,13.61,24.3,20.84l.03,2.86c17.25,17.67,40.25,49.57,45,74,4.93,4.32,3.81,16.98,1.92,23.27-2.74,9.13-7.99,13.89-15.54,19.24-3.39,2.4-12.72,6.51-16.38,5.49-40.82,9.61-84.27,4.07-125.02-3.48-22.23-4.12-45.25-9.37-66.98-15.52-17.05-4.83-34.88-10.8-51.52-16.98-23.39-8.69-48.68-19.03-65.48-38,10.09,1.2,18.85,7.7,28.02,11.47,66.71,27.48,200.13,67.5,270.21,54.24,63.51-12.01,21.87-71.17-3.71-99.74-59.17-66.07-144-109.02-222.51-147.5-1.76-8.18,19.52,2.41,21.67,3.34,28.04,12.08,59.05,28.56,85.33,44.17Z"/>
      <path class="st6" d="M473.03,692.47l27.99-38,51.01,109-1.33,1.93-114.25-6.06,50.2,102.83-.62,3.3c-1.85,1.71-5.2,1.12-7.55,1.03-32.6-1.13-70.47-3.76-102.94-7.05-2.73-.28-11.5-.43-10.51-2.98,19.89-32.05,41.32-65.51,63.56-96.88l4.44-4.12c2.32-3.36,7.63-13.13,10-15,3.13-2.47,11.02-4.46,15.32-7.18,15.86-10.06,18.05-23.49,14.68-40.82Z"/>
      <polygon class="st1" points="552.03 763.47 551.11 767 486.03 865.47 433.06 756.96 552.03 763.47"/>
      <path class="st6" d="M509.03,492.47l.87,4.57c-18.91,33.67-41.72,65.61-64.27,96.91l-2.6,1.53c-5.02,7.64-10.4,15.09-15,23-7.25-7.44-20.49-17.79-29-25l1.36-1.51c12.82-1.16,25.83-.77,39.04,1.17l-50.04-104.38.64-3.28,119,7Z"/>
      <path class="st5" d="M509.03,492.47l52.99,110.99-118.99-7.99c20.23-30.81,47.16-66.53,64.44-98.06.89-1.63,1.78-2.94,1.56-4.94Z"/>
      <path class="st5" d="M433.03,755.47c-22.32,32.38-42.66,66.17-65.01,98.54-.86,1.24-.77,2.94-2.99,2.46l-51.99-108.99,119.99,7.99Z"/>
      <path class="st1" d="M390.03,485.47l52.01,108.5-1.44,1.45c-13.55-.88-28.24-3.72-41.57-1.95-16.47-13.95-35.63-29.38-53-41l44-67Z"/>
      <path class="st1" d="M341.8,241.66c13.71-1.75,24.88,21.99,27.72,32.81,2.85,10.89,6.53,29.54-8.43,32.55-7.42,1.49-34.75-1.92-40.58-6.53-14.59-11.57,4.29-56.66,21.3-58.83Z"/>
      <path class="st1" d="M570.79,241.66c12.37-2.19,22.79,24.95,23.98,34.57,2.63,21.23-7.1,24.71-26.37,26.1-19.2,1.39-20.81-8.42-18.11-25.1,1.53-9.44,9.72-33.66,20.5-35.57Z"/>
      <path class="st3" d="M344.75,253.69c15.07-3.44,15.51,23.68,4.74,25.77-14.56,2.83-14.95-23.44-4.74-25.77Z"/>
      <path class="st3" d="M582.77,277.2c-10,9.16-17.25-21.62-7.01-24.55,9.83-2.81,13.11,18.96,7.01,24.55Z"/>
      <path class="st7" d="M479.93,299.41c3.15-.31,31.44,8.26,33.44,17.27.76,3.42-1.48,7.06-3.16,10.12-3.77,6.92-9.77,11.69-16.61,15.58-5.3,3.21-11.03,5.18-17.05,4.04-13.57-1.96-50.01-15.3-42.19-28.06,3.01-4.3,8.41-7.49,13-10.18,10.11-5.49,14.25-6.42,19.43-7.57,3.56-.79,4.18-.81,5.75-1.02,2.9-.4,7.39-.17,7.39-.17Z"/>
    </g>
    <g>
      <path d="M466.79,300.6l-18.15,8.1c-3.7,2.44-14.18,8.75-13.16,13.67,2.13,10.34,32.61,23.85,42.72,23.83,12.34-.03,27.11-11.71,32.02-22.56,5.73-12.67-11.16-18.21-13.98-19.27l-16.3-4.96c8.34-1.29,35.77,7.9,35.42,17.42-.27,7.25-12.19,19.6-17.9,23.77-17.11,12.48-35.26,6.54-51.78-3.57-31.11-19.04.61-32.37,21.12-36.42Z"/>
      <path d="M509.44,318.42c-17.34,13.1-42.41,7.88-62.47,4.93-.24-1.72,2.25-.93,3.45-.98,20.04-.75,39.64,2.72,59.02-3.95Z"/>
    </g>
  </g>
</svg>